# xmcd
#
# Track frame offsets:
#	150
#	20770
#	37952
#	54748
#	74091
#	91396
#	112986
#	125691
#
# Disc length: 1918 seconds
#
# Revision: 0
# Processed by: cddbd v1.5.2PL0 Copyright (c) Steve Scherf et al.
# Submitted via: audiograbber 1.83.01
#
DISCID=71077c08
DTITLE=Zezé no Cabaré - O Fenomeno do Arrocha Vol 1
DYEAR=2012
DGENRE=Forró
TTITLE0=faz mais uma vez comigo - preciso de você - me leva pra casa
TTITLE1=tudo de novo - brigue comigo, mas não vá - liberdade
TTITLE2=olhos de lua - eu acabo voltando - a gente fica sem se amar
TTITLE3=pra mudar a minha vida - o que é que eu faço - a ferro e fogo
TTITLE4=na hora h - doce paixao - mais do que eu
TTITLE5=pao de mel - você vai ver - sem medo de ser feliz
TTITLE6=tarde demais - mais do que eu
TTITLE7=é o amor - coraçao em pedaços - felicidade, que saudade de você
EXTD=
EXTT0=
EXTT1=
EXTT2=
EXTT3=
EXTT4=
EXTT5=
EXTT6=
EXTT7=
PLAYORDER=
